<svg id="visual" viewBox="0 0 900 360" width="900" height="360" xmlns="http://www.w3.org/2000/svg" xmlns:xlink="http://www.w3.org/1999/xlink" version="1.1"><rect x="0" y="0" width="900" height="360" fill="#202731"></rect><path d="M0 118L129 113L257 103L386 126L514 132L643 142L771 107L900 98L900 0L771 0L643 0L514 0L386 0L257 0L129 0L0 0Z" fill="#fa7268"></path><path d="M0 83L129 76L257 86L386 101L514 108L643 91L771 116L900 94L900 0L771 0L643 0L514 0L386 0L257 0L129 0L0 0Z" fill="#ef5f67"></path><path d="M0 91L129 74L257 89L386 56L514 80L643 82L771 81L900 93L900 0L771 0L643 0L514 0L386 0L257 0L129 0L0 0Z" fill="#e34c67"></path><path d="M0 58L129 70L257 48L386 42L514 50L643 50L771 69L900 44L900 0L771 0L643 0L514 0L386 0L257 0L129 0L0 0Z" fill="#d53867"></path><path d="M0 38L129 19L257 21L386 41L514 32L643 35L771 24L900 41L900 0L771 0L643 0L514 0L386 0L257 0L129 0L0 0Z" fill="#c62368"></path></svg>
